<svg width="480" height="320" viewBox="0 0 480 320" xmlns="http://www.w3.org/2000/svg" role="img" aria-label="Ilustración de contrato de seguros">
  <defs>
    <linearGradient id="bgShield" x1="0" y1="0" x2="1" y2="1">
      <stop offset="0%" stop-color="#12233b" />
      <stop offset="100%" stop-color="#1e3152" />
    </linearGradient>
    <linearGradient id="accent" x1="0" y1="0" x2="1" y2="1">
      <stop offset="0%" stop-color="#f9d423" />
      <stop offset="100%" stop-color="#c8a033" />
    </linearGradient>
  </defs>
  <rect width="480" height="320" rx="36" fill="#030a1e" />
  <path d="M120 80 H360 V260 H120 Z" fill="#121b2f" rx="24" />
  <rect x="140" y="100" width="200" height="140" rx="18" fill="#1a2740" stroke="#283553" />
  <rect x="160" y="120" width="160" height="12" rx="6" fill="#2f4062" />
  <rect x="160" y="146" width="160" height="12" rx="6" fill="#2f4062" opacity="0.7" />
  <rect x="160" y="172" width="120" height="12" rx="6" fill="#2f4062" opacity="0.5" />
  <path d="M240 210 L260 230 L300 190" stroke="#9bc7ff" stroke-width="8" stroke-linecap="round" fill="none" />
  <path d="M340 140 L420 160 L420 240 L340 220 Z" fill="url(#bgShield)" />
  <path d="M360 165 L400 175 V210 L360 200 Z" fill="url(#accent)" />
</svg>
